<?xml version="1.0" standalone="no"?>
<!DOCTYPE svg PUBLIC "-//W3C//DTD SVG 20010904//EN"
 "http://www.w3.org/TR/2001/REC-SVG-20010904/DTD/svg10.dtd">
<svg version="1.0" xmlns="http://www.w3.org/2000/svg"
 width="424.000000pt" height="424.000000pt" viewBox="0 0 424.000000 424.000000"
 preserveAspectRatio="xMidYMid meet">
<metadata>
Created by potrace 1.14, written by Peter Selinger 2001-2017
</metadata>
<g transform="translate(0.000000,424.000000) scale(0.100000,-0.100000)"
fill="#000000" stroke="none">
<path d="M1969 4216 c-2 -2 -35 -6 -74 -9 -38 -3 -106 -13 -150 -21 -44 -9
-89 -18 -100 -20 -42 -8 -113 -29 -197 -57 -615 -206 -1111 -702 -1316 -1315
-84 -249 -113 -449 -107 -724 4 -175 7 -211 26 -306 5 -28 12 -64 15 -80 11
-67 60 -226 101 -333 210 -536 641 -969 1175 -1181 154 -61 319 -105 468 -126
250 -36 505 -28 742 21 733 153 1328 688 1564 1405 39 118 83 319 92 425 9 95
8 396 -2 470 -107 825 -650 1489 -1431 1750 -76 25 -206 59 -270 69 -16 3 -59
10 -95 16 -61 11 -432 24 -441 16z"/>
</g>
</svg>
